<svg id="Layer_1" data-name="Layer 1" xmlns="http://www.w3.org/2000/svg" viewBox="0 0 100 100"><defs><style>.cls-1{fill:#fff;}.cls-2{fill:#231f20;}</style></defs><title>icon-vote-center</title><circle class="cls-1" cx="50" cy="50" r="50"/><path class="cls-2" d="M53.82,79.5a1.12,1.12,0,0,1-.81-.32l-7.24-6.46L32.62,71a1.09,1.09,0,0,1-.54-.23l-8.87-6.19a1.27,1.27,0,0,1-.52-1.08,1.23,1.23,0,0,1,.67-1L45.15,51l1.16,2.19-20,10.54,6.9,4.84,13.22,1.74a1.37,1.37,0,0,1,.66.3L54,76.75,78.56,63.9l-6.09-5.38L59.35,56.8a1.24,1.24,0,0,1-.5-.17L55.3,54.46l1.28-2.11,3.34,2,13.22,1.74a1.37,1.37,0,0,1,.66.3l7.72,6.83a1.29,1.29,0,0,1,.42,1.08,1.2,1.2,0,0,1-.67.93L54.39,79.35A1.13,1.13,0,0,1,53.82,79.5Z"/><rect class="cls-2" x="32.25" y="65.39" width="11.99" height="2.48" transform="translate(-26.15 24.73) rotate(-27.09)"/><rect class="cls-2" x="53.43" y="60.93" width="20.61" height="2.48" transform="translate(-22.13 38.62) rotate(-28.95)"/><path class="cls-2" d="M50.9,41.39h0a6.08,6.08,0,0,1-6.19-6v-.19a6.11,6.11,0,0,1,6.07-6.15h.12a6.16,6.16,0,1,1,0,12.31Zm0-9.85a3.69,3.69,0,1,0,0,7.37h0a3.77,3.77,0,0,0,2.68-1.08,3.72,3.72,0,0,0-2.7-6.29Z"/><path class="cls-2" d="M50.88,62l-1-1.45C49.48,60,40.41,47,38.57,44.09a14.94,14.94,0,0,1-2.51-9,14.82,14.82,0,0,1,29.63,0,15,15,0,0,1-2.5,9C61.34,47,52.28,60,51.89,60.58Zm0-39.14A12.31,12.31,0,0,0,38.52,35.08a12.6,12.6,0,0,0,2.14,7.69c1.45,2.28,7.74,11.37,10.22,14.94,2.48-3.59,8.77-12.66,10.22-14.94a12.72,12.72,0,0,0,2.14-7.69A12.28,12.28,0,0,0,50.89,22.89Z"/></svg>