<svg id="Layer_1" data-name="Layer 1" xmlns="http://www.w3.org/2000/svg" viewBox="0 0 100 100"><defs><style>.cls-1{fill:#fff;}.cls-2{fill:#666;}</style></defs><title>icon-same-day</title><circle class="cls-1" cx="50" cy="50" r="50"/><path class="cls-2" d="M69.36,74V25.23a2.29,2.29,0,0,0-2.3-2.3H33.3a2.3,2.3,0,0,0-2.3,2.3V74a2.3,2.3,0,0,0,2.3,2.3H67.06A2.29,2.29,0,0,0,69.36,74ZM35.74,25.37H64.65a2.3,2.3,0,0,1,2.3,2.3V71.58a2.3,2.3,0,0,1-2.3,2.3H35.75a2.3,2.3,0,0,1-2.3-2.3V27.68A2.31,2.31,0,0,1,35.74,25.37Z"/><path class="cls-2" d="M38.61,65.1H61.69a1.27,1.27,0,0,1,0,2.54H38.61a1.27,1.27,0,1,1,0-2.54Z"/><path class="cls-2" d="M38.61,58.48H61.69a1.27,1.27,0,0,1,0,2.54H38.61a1.27,1.27,0,1,1,0-2.54Z"/><path class="cls-2" d="M38.61,51.88H61.69a1.27,1.27,0,0,1,0,2.54H38.61a1.27,1.27,0,1,1,0-2.54Z"/><path class="cls-2" d="M38.61,45.28H61.69a1.27,1.27,0,0,1,0,2.54H38.61a1.27,1.27,0,1,1,0-2.54Z"/><path class="cls-2" d="M38.61,38.66H61.69a1.27,1.27,0,1,1,0,2.54H38.61a1.27,1.27,0,0,1,0-2.54Z"/><path class="cls-2" d="M38.61,32.07H61.69a1.27,1.27,0,0,1,0,2.53H38.61a1.27,1.27,0,1,1,0-2.53Z"/></svg>