<svg id="Layer_1" data-name="Layer 1" xmlns="http://www.w3.org/2000/svg" viewBox="0 0 100 100"><defs><style>.cls-1{fill:#fff;}.cls-2{fill:#ef6696;}</style></defs><title>icon-vote-by-mail</title><circle class="cls-1" cx="50" cy="50" r="50"/><path class="cls-2" d="M78.69,39.09l-4.34,4.34v-7.6Z"/><path class="cls-2" d="M58.2,23.7H42.83l7.67-5.77Z"/><path class="cls-2" d="M26.65,35.83v7.6l-4.34-4.34Z"/><path class="cls-2" d="M36.34,58,21.42,69.15V43.05Z"/><path class="cls-2" d="M79.61,43.05V70l-15-12Z"/><path class="cls-2" d="M76.41,71.85H23.58l16-12H61.46Z"/><path d="M82.27,73.56a2.14,2.14,0,0,1-.06.35,1,1,0,0,1-.92.63H19.71a1,1,0,0,1-.95-1V38.9a1,1,0,0,1,.1-.44,1.51,1.51,0,0,1,.22-.28h0s.1-.07.16-.13l8.17-6.15s0-2.18,0-6.52a1,1,0,0,1,.95-.95h9L50,15a1,1,0,0,1,1.14,0l12.48,9.37s3,0,9.09.07a1,1,0,0,1,1,.95v6.49l8.27,6.24a1.35,1.35,0,0,1,.28.35,1,1,0,0,1,.1.44Zm-1.93-2V41.22L63.49,58.07ZM73.62,45.24,79.86,39l-6.24-4.69ZM21.29,72.61H78.57L61.71,59.11H39.29Zm50.4-25.44V26.39H29.34V47.17l10,10h22.3ZM40.55,24.46h19.9L50.5,17ZM20.66,70.68,37.48,58.07,20.66,41.22Zm6.75-25.44V34.34L21.17,39Z"/><path d="M74.35,43.43l4.34-4.34-4.34-3.26Zm4.91-4.37L74,44.35V35.1Z"/><path d="M74,44.35l5.29-5.29L74,35.1ZM79.83,39l-6.24,6.24V34.34Z"/><path d="M79.61,43.05l-15,15,15,12ZM80,70.77,64.06,58,80,42.13Z"/><path d="M80.34,71.56,63.49,58.07,80.34,41.22ZM64.06,58,80,70.77V42.14Z"/><path d="M61.52,33a1.67,1.67,0,0,1,.28,2.35l0,0L50.06,49.9,42,41.41A1.73,1.73,0,0,1,42,39a1.69,1.69,0,0,1,2.4.06h0l5.41,5.7,9.32-11.5A1.67,1.67,0,0,1,61.49,33Z"/><path d="M40.55,24.46,50.5,17l10,7.48Zm1.14-.38H59.34L50.5,17.49Z"/><path d="M58.19,23.7l-7.7-5.77L42.83,23.7Zm1.14.38H41.69l8.81-6.59Z"/><path d="M22.44,72.23l17-12.74H61.59l15.9,12.74Zm1.14-.38H76.44l-14.95-12h-22Z"/><path d="M21.29,72.61l18-13.5H61.71l16.86,13.5ZM39.41,59.49l-17,12.74H77.49L61.59,59.49Z"/><path d="M61.49,56.83h-22L29.69,47V26.77H71.28V47Zm-21.83-.38H61.33l9.57-9.6V27.15H30v19.7Z"/><path d="M61.65,57.21H39.35l-10-10V26.39H71.69V47.17Zm-22.14-.38h22L71.28,47V26.77H29.69V47Z"/><path d="M26.65,43.43v-7.6L22.31,39.1ZM27,35.1v9.25l-5.29-5.29Z"/><path d="M27,44.35V35.1l-5.29,4Zm.38.89L21.17,39l6.24-4.66Z"/><path d="M21.42,69.15,36.34,58,21.42,43.05ZM36.91,58,21,69.91V42.13Z"/><path d="M37.48,58.07,20.66,70.68V41.22ZM21,69.92,36.91,58,21,42.14Z"/><path d="M27.38,32c-4.82,3.58-7.54,5.63-8.18,6.11a.47.47,0,0,0-.15.13h0a1.23,1.23,0,0,0-.23.28,1.14,1.14,0,0,0-.1.45V73.59a1,1,0,0,0,1,1H81.29a1,1,0,0,0,.41-.1,1,1,0,0,0,.51-.54,1.35,1.35,0,0,0,.06-.35V38.9a1,1,0,0,0-.1-.44,3.07,3.07,0,0,0-.28-.35L73.62,31.9V25.44a1,1,0,0,0-1-1l-9.09-.06L51.07,15a1,1,0,0,0-1.14,0L37.35,24.46h-9a1,1,0,0,0-1,.95C27.38,29.78,27.38,31.93,27.38,32ZM81.32,74.89H19.71a1.34,1.34,0,0,1-1.33-1.33V38.9a1.85,1.85,0,0,1,.13-.6.81.81,0,0,1,.28-.38l.19-.15,8-6c0-.48,0-2,0-6.34a1.34,1.34,0,0,1,1.33-1.33h8.87L49.71,14.7a1.22,1.22,0,0,1,.79-.25,1.4,1.4,0,0,1,.79.25L63.68,24c.44,0,2.47,0,8.93.07a1.33,1.33,0,0,1,1.33,1.33v6.37l8.11,6.08a2,2,0,0,1,.35.41h0a1.3,1.3,0,0,1,.19.67V73.56a1.61,1.61,0,0,1-.06.44,1.28,1.28,0,0,1-.7.76A.9.9,0,0,1,81.32,74.89Z"/><path d="M19.71,74.89H81.32a1.25,1.25,0,0,0,.57-.13,1.44,1.44,0,0,0,.7-.76,1.09,1.09,0,0,0,.06-.44V38.9a1.13,1.13,0,0,0-.19-.66h0a3.36,3.36,0,0,0-.34-.41L74,31.74v-6.3a1.35,1.35,0,0,0-1.33-1.33c-6.5,0-8.49-.06-8.94-.06L51.32,14.73a1.22,1.22,0,0,0-.79-.25,1.4,1.4,0,0,0-.79.25L37.23,24.08H28.36A1.34,1.34,0,0,0,27,25.41c0,4.31,0,5.86,0,6.33-4.69,3.52-7.35,5.55-8,6l-.19.16a1.14,1.14,0,0,0-.28.38,1.25,1.25,0,0,0-.13.6V73.56a1.28,1.28,0,0,0,1.23,1.33Zm-.95-37.41,7.86-5.89c0-.64,0-2.28,0-6.15a1.7,1.7,0,0,1,1.69-1.71H37.1l12.39-9.31a1.74,1.74,0,0,1,1-.35,1.67,1.67,0,0,1,1,.35l12.33,9.22c.63,0,2.75,0,8.8.06a1.69,1.69,0,0,1,1.71,1.69v6.13l8,6,0,0,0,0a3.14,3.14,0,0,1,.42.48h0a1.71,1.71,0,0,1,.22.85V73.56a2.51,2.51,0,0,1-.1.6,1.93,1.93,0,0,1-.89,1,2,2,0,0,1-.73.16H19.71A1.71,1.71,0,0,1,18,73.61V38.9a1.82,1.82,0,0,1,.16-.76,1.84,1.84,0,0,1,.38-.5h0a.69.69,0,0,1,.22-.16Z"/></svg>