<svg id="Layer_1" data-name="Layer 1" xmlns="http://www.w3.org/2000/svg" viewBox="0 0 100 100"><defs><style>.cls-1{fill:#fff;}.cls-2{fill:#171717;}</style></defs><title>icon-drop-box</title><circle class="cls-1" cx="50" cy="50" r="50"/><path class="cls-2" d="M54.29,85l-23.66-13a1.13,1.13,0,0,1-.6-1l-.13-17a1.15,1.15,0,0,1,1.15-1.16h0a1.15,1.15,0,0,1,1.17,1.14h0l.12,15.65a1.15,1.15,0,0,0,.6,1L54.28,82.29a1.17,1.17,0,0,0,1.12,0l11.51-6.41a1.15,1.15,0,0,0,.6-1l.12-15.66a1.15,1.15,0,0,1,1.16-1.15h0a1.15,1.15,0,0,1,1.15,1.17h0l-.12,17a1.17,1.17,0,0,1-.6,1L55.4,84.94a1.15,1.15,0,0,1-1.11,0Z"/><rect class="cls-2" x="53.77" y="65.75" width="2.32" height="17.6"/><path class="cls-2" d="M54.41,67.2,30.68,54.38a1.23,1.23,0,0,1-.48-1.68,1.25,1.25,0,0,1,.47-.47l13.53-7.6a1.26,1.26,0,0,1,1.19,0L69.11,57.56a1.23,1.23,0,0,1,.47,1.69,1.25,1.25,0,0,1-.47.47L55.58,67.19A1.24,1.24,0,0,1,54.41,67.2ZM35.49,54.34,54.4,64.56a1.27,1.27,0,0,0,1.17,0l8.73-4.82a1.25,1.25,0,0,0,.47-1.69,1.32,1.32,0,0,0-.47-.47L45.41,47.28a1.26,1.26,0,0,0-1.19,0l-8.74,4.91A1.24,1.24,0,0,0,35,53.88a1.22,1.22,0,0,0,.47.46Z"/><path class="cls-2" d="M56.17,60l-14-7.69,1.91-1.6,14.07,7.71Z"/><path class="cls-2" d="M56.44,44.6,43.16,37.08l0-22,13.25,7.57Zm-11-8.87,8.64,4.89V24L45.49,19Z"/><path class="cls-2" d="M35.9,67.89l-1.39-7,1.34.77.44,2.94c.11.73.25,1.57.32,2.34h0c.08-.69.19-1.37.29-2l.43-2.41,1.33.77-1.42,5.39Z"/><path class="cls-2" d="M43.33,69c0,2.33-.83,2.8-2,2.12-1.41-.81-2-2.62-2-4.32s.67-2.78,2-2S43.33,67.55,43.33,69ZM40.6,67.51c0,1.41.27,2.28.75,2.56s.7-.52.7-1.78c0-1.09-.17-2.16-.71-2.47s-.73.35-.73,1.69Z"/><path class="cls-2" d="M45.16,68.14l-1.1-.63V66.39l3.4,2v1.11l-1.1-.63v5.09l-1.2-.7Z"/><path class="cls-2" d="M51.19,74l-1.42-.82v1.68l1.6.92v1L48.56,75.2V69l2.7,1.56v1l-1.48-.86v1.43L51.2,73Z"/><path d="M49.06,34.68l-2.65-2.79a1,1,0,1,1,1.43-1.38l1.1,1.17,2.63-3.26a1,1,0,0,1,1.54,1.24Z"/></svg>