<svg id="Layer_1" data-name="Layer 1" xmlns="http://www.w3.org/2000/svg" viewBox="0 0 100 100"><defs><style>.cls-1{fill:#fff;}.cls-2{fill:#ef6696;}</style></defs><title>icon-same-day2</title><g id="Group_58" data-name="Group 58"><circle id="Ellipse_5-2" data-name="Ellipse 5-2" class="cls-1" cx="50" cy="50" r="50"/><g id="Group_57" data-name="Group 57"><g id="Group_50" data-name="Group 50"><path id="Path_238" data-name="Path 238" d="M31,25.3V74.07a2.3,2.3,0,0,0,2.3,2.3H67.06a2.3,2.3,0,0,0,2.3-2.3V25.3a2.3,2.3,0,0,0-2.3-2.3H33.3A2.3,2.3,0,0,0,31,25.3Z"/><path id="Path_239" data-name="Path 239" class="cls-2" d="M64.62,73.92H35.72a2.29,2.29,0,0,1-2.3-2.3V27.72a2.3,2.3,0,0,1,2.3-2.3h28.9a2.3,2.3,0,0,1,2.3,2.3v43.9a2.3,2.3,0,0,1-2.3,2.3Z"/></g><g id="Group_51" data-name="Group 51"><path id="Path_240" data-name="Path 240" d="M61.76,34.2H38.68a1.27,1.27,0,0,1,0-2.54H61.76a1.27,1.27,0,1,1,0,2.54Z"/></g><g id="Group_52" data-name="Group 52"><path id="Path_241" data-name="Path 241" d="M61.76,40.82H38.68a1.27,1.27,0,0,1,0-2.54H61.76a1.27,1.27,0,1,1,0,2.54Z"/></g><g id="Group_53" data-name="Group 53"><path id="Path_242" data-name="Path 242" d="M61.76,47.42H38.68a1.27,1.27,0,0,1,0-2.54H61.76a1.27,1.27,0,1,1,0,2.54Z"/></g><g id="Group_54" data-name="Group 54"><path id="Path_243" data-name="Path 243" d="M61.76,54H38.68a1.27,1.27,0,0,1,0-2.54H61.76a1.27,1.27,0,0,1,0,2.54Z"/></g><g id="Group_55" data-name="Group 55"><path id="Path_244" data-name="Path 244" d="M61.76,60.64H38.68a1.27,1.27,0,0,1,0-2.54H61.76a1.27,1.27,0,1,1,0,2.54Z"/></g><g id="Group_56" data-name="Group 56"><path id="Path_245" data-name="Path 245" d="M61.76,67.23H38.68a1.27,1.27,0,1,1,0-2.53H61.76a1.27,1.27,0,1,1,0,2.53Z"/></g></g></g></svg>