<svg id="Layer_1" data-name="Layer 1" xmlns="http://www.w3.org/2000/svg" xmlns:xlink="http://www.w3.org/1999/xlink" viewBox="0 0 100 100"><defs><style>.cls-1{fill:none;}.cls-2{fill:#ef6696;}.cls-3{fill:#fff;}.cls-4{clip-path:url(#clip-path);}.cls-5{fill:#404248;}</style><clipPath id="clip-path"><rect class="cls-1" x="31" y="15.82" width="38.82" height="67.91"/></clipPath></defs><title>icon-drop-box2</title><g id="Group_60" data-name="Group 60"><path id="Path_222" data-name="Path 222" class="cls-2" d="M44.22,17.8l10.91,5.47V42.14L44.22,36.31Z"/><g id="Group_59" data-name="Group 59"><g id="DropBox"><circle id="Ellipse_2-2" data-name="Ellipse 2-2" class="cls-3" cx="50" cy="50" r="50"/></g><g id="Group_49" data-name="Group 49"><g class="cls-4"><g id="Group_35" data-name="Group 35"><g id="Group_34" data-name="Group 34"><path id="Path_223" data-name="Path 223" class="cls-5" d="M54.64,83.59,31.71,71a1.13,1.13,0,0,1-.59-1L31,53.49a1.11,1.11,0,0,1,1.11-1.13h0a1.13,1.13,0,0,1,1.13,1.12l.11,15.17a1.14,1.14,0,0,0,.58,1L54.63,81a1.11,1.11,0,0,0,1.09,0l11.16-6.21a1.11,1.11,0,0,0,.58-1l.12-15.19a1.11,1.11,0,0,1,1.13-1.11h0a1.13,1.13,0,0,1,1.12,1.13h0L69.7,75.16a1.12,1.12,0,0,1-.58,1L55.73,83.59a1.11,1.11,0,0,1-1.09,0"/></g></g></g><g id="Group_36" data-name="Group 36"><path id="Path_225" data-name="Path 225" class="cls-5" d="M54.13,82.05h2.25V65H54.14Z"/></g><g class="cls-4"><g id="Group_38" data-name="Group 38"><g id="Group_37" data-name="Group 37"><path id="Path_226" data-name="Path 226" class="cls-5" d="M54.76,66.39,31.75,54a1.21,1.21,0,0,1-.48-1.62,1.18,1.18,0,0,1,.47-.47l13.12-7.36a1.18,1.18,0,0,1,1.15,0L69,57.05a1.21,1.21,0,0,1,.47,1.62,1.18,1.18,0,0,1-.47.47L55.9,66.39a1.21,1.21,0,0,1-1.14,0M36.41,53.93l18.34,9.9a1.21,1.21,0,0,0,1.14,0l8.46-4.68a1.19,1.19,0,0,0,0-2.09L46,47.08a1.15,1.15,0,0,0-1.15,0L36.4,51.84a1.19,1.19,0,0,0-.46,1.62,1.25,1.25,0,0,0,.47.47"/></g></g></g><g id="Group_39" data-name="Group 39"><path id="Path_228" data-name="Path 228" class="cls-5" d="M56.47,59.44,42.87,52l1.85-1.54,13.64,7.47Z"/></g><g id="Group_40" data-name="Group 40"><path id="Path_229" data-name="Path 229" class="cls-5" d="M43.87,15.82l0,21.37,12.87,7.29V23.16Z"/></g><g id="Group_41" data-name="Group 41"><path id="Path_230" data-name="Path 230" class="cls-2" d="M46.1,35.88l8.37,4.74V24.47l-8.35-4.78Z"/></g><g class="cls-4"><g id="Group_44" data-name="Group 44"><g id="Group_42" data-name="Group 42"><path id="Path_231" data-name="Path 231" class="cls-5" d="M36.82,67.07l-1.35-6.8,1.3.74.42,2.85c.11.71.23,1.52.31,2.27h0c.08-.67.18-1.33.28-2l.42-2.33,1.28.74-1.37,5.23Z"/></g><g id="Group_43" data-name="Group 43"><path id="Path_232" data-name="Path 232" class="cls-5" d="M44,68.1c0,2.27-.8,2.73-1.95,2.07-1.36-.79-1.9-2.55-1.9-4.2s.65-2.69,2-1.92S44,66.73,44,68.11m-2.63-1.42c0,1.37.26,2.21.73,2.49s.68-.5.68-1.73c0-1-.16-2.1-.69-2.41s-.72.36-.72,1.65"/></g></g></g><g id="Group_45" data-name="Group 45"><path id="Path_234" data-name="Path 234" class="cls-5" d="M45.79,67.3l-1.06-.61V65.61L48,67.52V68.6L47,68v4.94l-1.17-.68Z"/></g><g id="Group_46" data-name="Group 46"><path id="Path_235" data-name="Path 235" class="cls-5" d="M51.64,73l-1.38-.8v1.63l1.55.9v1l-2.72-1.58v-6l2.62,1.51v1l-1.45-.83v1.38l1.38.79Z"/></g><g class="cls-4"><g id="Group_48" data-name="Group 48"><g id="Group_47" data-name="Group 47"><path id="Path_236" data-name="Path 236" d="M49.57,34.86,47,32.15a1,1,0,1,1,1.38-1.32L49.45,32,52,28.79a1,1,0,0,1,1.35-.14h0A1,1,0,0,1,53.5,30Z"/></g></g></g></g></g></g></svg>