<svg id="Layer_1" data-name="Layer 1" xmlns="http://www.w3.org/2000/svg" viewBox="0 0 294.97 20.6"><defs><style>.cls-1{fill:#f06696;}</style></defs><title>logo-pink</title><path class="cls-1" d="M8.91,5.2c-1,0-1.57.32-1.57,1,0,2.78,9.88,1.14,9.88,8,0,4-3.56,5.94-7.8,5.94a15.48,15.48,0,0,1-9.1-3l2.11-4.27a12.89,12.89,0,0,0,7,2.89c1.19,0,1.95-.4,1.95-1.27,0-2.86-9.88-1.05-9.88-7.72,0-3.64,3.1-6,7.83-6A15.31,15.31,0,0,1,17.28,3L15.2,7.3A15.85,15.85,0,0,0,8.91,5.2Z"/><path class="cls-1" d="M31.72,16.94H24.08L23,20H17.17L25.24,1H31L38.82,20h-6Zm-1.48-4.1L28,6.66l-2.32,6.18Z"/><path class="cls-1" d="M48.57,5.55a4.59,4.59,0,0,0-4.51,4.86,4.61,4.61,0,0,0,4.51,4.88,6.86,6.86,0,0,0,4.51-2.18l3.24,3.45a11.42,11.42,0,0,1-8,3.65,9.6,9.6,0,0,1-10-9.75C38.31,5,42.63.88,48.49.88a11.15,11.15,0,0,1,7.83,3.35L53.08,8.06A6.17,6.17,0,0,0,48.57,5.55Z"/><path class="cls-1" d="M68.85,20l-2.51-5.1h-3V20H57.75V1h8.83c5.07,0,8,2.43,8,6.72a6.44,6.44,0,0,1-3.19,6L75.22,20Zm-5.48-9.42h3.21a2.38,2.38,0,0,0,2.64-2.62,2.37,2.37,0,0,0-2.64-2.56H63.37Z"/><path class="cls-1" d="M89.8,16.94H82.16L81,20H75.25L83.32,1H89.1L96.9,20h-6Zm-1.49-4.1L86.05,6.66l-2.33,6.18Z"/><path class="cls-1" d="M104,1l4.56,10.47L113.15,1h6V20h-4.91l0-11.2-3.8,9.34h-3.68L103,8.76V20H98V1Z"/><path class="cls-1" d="M137.56,1V5.36h-9.85v3h8.93v4.32h-8.93v3h10.12V20H122.09V1Z"/><path class="cls-1" d="M145.07,1l8,10.58V1h5.12V20h-4.77l-8-10.52V20h-5.16V1Z"/><path class="cls-1" d="M176.33,1V5.52h-5.5V20h-5.65V5.52H159.7V1Z"/><path class="cls-1" d="M196.47,10.49c0,5.56-4.37,9.72-10.31,9.72s-10.31-4.13-10.31-9.72S180.22.88,186.16.88,196.47,5,196.47,10.49Zm-14.87,0a4.81,4.81,0,0,0,4.64,5,4.68,4.68,0,0,0,4.48-5,4.63,4.63,0,0,0-4.48-4.94A4.74,4.74,0,0,0,181.6,10.52Z"/><path class="cls-1" d="M208.27,1l4.32,13.09L216.91,1h5.75L215.35,20h-5.83L202.28,1Z"/><path class="cls-1" d="M243.18,10.49c0,5.56-4.37,9.72-10.31,9.72s-10.31-4.13-10.31-9.72S226.93.88,232.87.88,243.18,5,243.18,10.49Zm-14.87,0a4.81,4.81,0,0,0,4.64,5,4.68,4.68,0,0,0,4.48-5A4.63,4.63,0,0,0,233,5.58,4.74,4.74,0,0,0,228.31,10.52Z"/><path class="cls-1" d="M259.49,1V5.52H254V20h-5.64V5.52h-5.48V1Z"/><path class="cls-1" d="M276.45,1V5.36h-9.86v3h8.94v4.32h-8.94v3h10.13V20H261V1Z"/><path class="cls-1" d="M286.47,5.2c-1,0-1.57.32-1.57,1,0,2.78,9.88,1.14,9.88,8,0,4-3.56,5.94-7.8,5.94a15.48,15.48,0,0,1-9.1-3L280,12.86a12.89,12.89,0,0,0,7,2.89c1.19,0,2-.4,2-1.27,0-2.86-9.88-1.05-9.88-7.72,0-3.64,3.1-6,7.82-6A15.26,15.26,0,0,1,294.83,3L292.76,7.3A15.85,15.85,0,0,0,286.47,5.2Z"/></svg>