<svg id="Layer_1" data-name="Layer 1" xmlns="http://www.w3.org/2000/svg" viewBox="0 0 132.11 13.83"><defs><style>.cls-1{fill:#fff;}</style></defs><title>logo</title><path class="cls-1" d="M3.9,3.49c-.53,0-.88.19-.88.58,0,1.39,4.43.6,4.43,3.62,0,1.71-1.51,2.59-3.38,2.59A6.32,6.32,0,0,1,.19,8.93L1,7.22A5.41,5.41,0,0,0,4.09,8.49c.65,0,1.06-.24,1.06-.68C5.15,6.38.72,7.24.72,4.27.72,2.7,2.05,1.7,4.08,1.7a6.52,6.52,0,0,1,3.36,1L6.61,4.39A6.63,6.63,0,0,0,3.9,3.49Z"/><path class="cls-1" d="M14.13,8.72H10.5l-.59,1.49H7.66L11.27,1.8h2.25l3.53,8.41H14.71ZM13.49,7,12.33,4,11.16,7Z"/><path class="cls-1" d="M21.57,3.6A2.28,2.28,0,0,0,19.29,6a2.29,2.29,0,0,0,2.28,2.39,3.13,3.13,0,0,0,2.09-1l1.28,1.38a5,5,0,0,1-3.49,1.56,4.28,4.28,0,1,1,.09-8.56,4.82,4.82,0,0,1,3.39,1.44L23.66,4.7A2.85,2.85,0,0,0,21.57,3.6Z"/><path class="cls-1" d="M30.93,10.21,29.71,7.88H28.08v2.33h-2.2V1.8h3.78c2.23,0,3.5,1.08,3.5,3a2.83,2.83,0,0,1-1.5,2.71l1.76,2.75ZM28.08,6.13h1.59a1.23,1.23,0,0,0,1.41-1.31c0-.83-.52-1.27-1.41-1.27H28.08Z"/><path class="cls-1" d="M40.17,8.72H36.54L36,10.21H33.7L37.31,1.8h2.25l3.53,8.41H40.75ZM39.52,7,38.37,4,37.2,7Z"/><path class="cls-1" d="M46.25,1.8l2.23,4.9,2.23-4.9h2.4v8.41h-2V4.88L49.2,9.37H47.76l-2-4.49v5.33H43.85V1.8Z"/><path class="cls-1" d="M61.38,1.8V3.55H56.94V5.12h4V6.87h-4V8.46H61.5v1.75H54.74V1.8Z"/><path class="cls-1" d="M64.77,1.8l3.82,5.06V1.8h2v8.41H68.71l-3.82-5v5h-2V1.8Z"/><path class="cls-1" d="M78.75,1.8V3.61H76.23v6.6H74V3.61h-2.5V1.8Z"/><path class="cls-1" d="M87.77,6a4.55,4.55,0,1,1-4.54-4.26A4.32,4.32,0,0,1,87.77,6ZM80.94,6a2.37,2.37,0,0,0,2.31,2.42A2.32,2.32,0,0,0,85.52,6a2.31,2.31,0,0,0-2.27-2.4A2.34,2.34,0,0,0,80.94,6Z"/><path class="cls-1" d="M93.15,1.8l2.1,6.08L97.36,1.8h2.26l-3.29,8.41H94.05L90.79,1.8Z"/><path class="cls-1" d="M108.88,6a4.55,4.55,0,1,1-4.54-4.26A4.32,4.32,0,0,1,108.88,6Zm-6.83,0a2.36,2.36,0,0,0,2.31,2.42A2.32,2.32,0,0,0,106.63,6a2.31,2.31,0,0,0-2.27-2.4A2.34,2.34,0,0,0,102.05,6Z"/><path class="cls-1" d="M116.18,1.8V3.61h-2.52v6.6h-2.19V3.61H109V1.8Z"/><path class="cls-1" d="M123.7,1.8V3.55h-4.43V5.12h4V6.87h-4V8.46h4.55v1.75h-6.75V1.8Z"/><path class="cls-1" d="M128.25,3.49c-.52,0-.87.19-.87.58,0,1.39,4.42.6,4.42,3.62,0,1.71-1.51,2.59-3.38,2.59a6.29,6.29,0,0,1-3.87-1.35l.85-1.71a5.38,5.38,0,0,0,3,1.27c.65,0,1.06-.24,1.06-.68,0-1.43-4.43-.57-4.43-3.54,0-1.57,1.34-2.57,3.36-2.57a6.46,6.46,0,0,1,3.36,1L131,4.39A6.54,6.54,0,0,0,128.25,3.49Z"/></svg>